<svg width="16" height="16" viewBox="0 0 16 16" fill="none" xmlns="http://www.w3.org/2000/svg">
<g clip-path="url(#clip0_2_1855)">
<path d="M7.50866 0.18971C7.26491 0.230334 6.89304 0.361585 6.65866 0.486585C6.44304 0.599085 6.31179 0.699084 5.92741 1.03346C5.47741 1.42408 5.08054 1.57721 4.39304 1.62408C3.92429 1.65533 3.90554 1.65846 3.59616 1.75533C2.46179 2.11471 1.63366 3.21471 1.62741 4.37096C1.62429 4.80221 1.50241 5.24596 1.28366 5.60221C1.23054 5.69283 1.07429 5.89283 0.933664 6.04596C0.639914 6.37721 0.474289 6.63971 0.346164 6.99283C0.108664 7.64596 0.102414 8.33033 0.333664 8.97408C0.474289 9.36783 0.624289 9.60221 1.03679 10.0741C1.40554 10.496 1.58366 10.9303 1.61491 11.4803C1.64929 12.1116 1.73679 12.4647 1.97429 12.9022C2.23054 13.3803 2.61804 13.7678 3.09616 14.0272C3.53054 14.2616 3.81179 14.3366 4.39304 14.3741C5.08054 14.4178 5.47741 14.571 5.92741 14.9647C6.33991 15.3241 6.44929 15.4022 6.73679 15.546C7.20554 15.7772 7.43366 15.8272 8.01804 15.8241C8.47116 15.8241 8.54616 15.8147 8.79929 15.7366C9.28054 15.5897 9.53679 15.4366 10.0774 14.9647C10.5274 14.571 10.9243 14.4178 11.6118 14.3741C12.193 14.3366 12.4743 14.2616 12.9087 14.0272C13.3868 13.7678 13.7743 13.3803 14.0305 12.9022C14.268 12.4647 14.3555 12.1116 14.3899 11.4803C14.4212 10.9303 14.5993 10.496 14.968 10.0741C15.3805 9.60221 15.5305 9.36783 15.6712 8.97408C15.8962 8.34283 15.8962 7.65846 15.6712 7.02408C15.5305 6.63033 15.3868 6.40221 14.968 5.92408C14.5993 5.50221 14.4212 5.06783 14.3899 4.51783C14.368 4.10533 14.3274 3.84283 14.2462 3.59283C14.0212 2.89596 13.5399 2.31158 12.9087 1.97096C12.4743 1.73658 12.193 1.66158 11.6118 1.62408C10.9243 1.58033 10.5274 1.42721 10.0774 1.03346C9.53366 0.561584 9.27741 0.405334 8.79929 0.264709C8.57116 0.195959 8.43991 0.17721 8.09616 0.170959C7.86491 0.164709 7.59929 0.170959 7.50866 0.18971Z" fill="#7D7D7E"/>
<path d="M12.0706 4.52734C11.8581 4.60859 11.6737 4.69609 11.6581 4.72109C11.6456 4.74296 11.5737 5.12109 11.4987 5.55234C11.4237 5.98671 11.3549 6.34296 11.3456 6.34296C11.3362 6.34296 11.1674 6.20859 10.9706 6.04296C10.7737 5.88046 10.4831 5.64296 10.3268 5.51484L10.0393 5.28046L9.63932 5.42421C9.41745 5.50234 9.2237 5.57734 9.2112 5.58984C9.1987 5.60234 9.64245 5.96484 10.2018 6.39296L11.2143 7.17109L11.4831 7.90234C11.6299 8.30234 11.7549 8.63671 11.7612 8.64296C11.7831 8.66796 12.4706 8.38671 12.4706 8.35546C12.4706 8.33359 12.3581 8.00859 12.2206 7.63046C12.0831 7.25546 11.9706 6.91484 11.9706 6.87734C11.9706 6.84296 12.0831 6.28359 12.2237 5.63671C12.3612 4.98984 12.4706 4.44609 12.4643 4.42109C12.4581 4.39296 12.3456 4.42421 12.0706 4.52734Z" fill="black"/>
<path d="M8.46517 5.85313C8.27767 5.925 8.12767 5.99688 8.12767 6.0125C8.12767 6.02813 8.32142 6.625 8.5558 7.33437C8.9683 8.58125 8.9808 8.62812 8.9433 8.75C8.85892 9.03125 8.5558 9.22812 8.2058 9.22812C7.89955 9.23125 7.74017 9.10938 7.59955 8.76875C7.54955 8.64688 7.3433 8.09687 7.1433 7.54688C6.94017 6.99688 6.76517 6.53437 6.74955 6.51875C6.7183 6.48438 6.06517 6.71875 6.0433 6.76875C6.02455 6.82187 6.80892 8.95625 6.94955 9.23438C7.11205 9.55 7.30267 9.75312 7.5433 9.875C7.70892 9.95625 7.76517 9.96875 7.99955 9.96875C8.47142 9.96875 9.10267 9.7375 9.40267 9.45625C9.76517 9.11562 9.86205 8.7125 9.71205 8.15625C9.60892 7.775 8.8683 5.74062 8.8308 5.73125C8.81205 5.725 8.64955 5.78125 8.46517 5.85313Z" fill="black"/>
<path d="M4.625 7.30115C4.32187 7.35115 2.5 7.99177 2.5 8.04802C2.5 8.1199 3.80938 11.4824 3.84063 11.4918C3.9 11.5105 5.60625 10.8855 5.89375 10.7386C6.12188 10.623 6.32812 10.3855 6.39375 10.1668C6.46563 9.92302 6.44375 9.53552 6.34687 9.33552C6.2 9.0324 5.97187 8.87927 5.58438 8.82302C5.44688 8.80427 5.4375 8.79802 5.48125 8.75115C5.65625 8.5574 5.7125 8.10427 5.59375 7.85427C5.49375 7.65115 5.3 7.45115 5.13438 7.3824C4.975 7.31365 4.75312 7.27927 4.625 7.30115ZM4.70312 8.04177C4.99375 8.16365 5.01562 8.57615 4.7375 8.7449C4.625 8.81677 3.83438 9.12302 3.77188 9.12302C3.74063 9.12302 3.65313 8.91365 3.475 8.41052C3.45938 8.36677 3.5625 8.3199 4.07812 8.13865C4.50625 7.98865 4.55313 7.97927 4.70312 8.04177ZM5.39688 9.4699C5.57188 9.53552 5.65625 9.89802 5.54063 10.0949C5.5125 10.1418 5.40937 10.2261 5.31562 10.2761C5.1375 10.3699 4.37813 10.6543 4.30625 10.6543C4.25937 10.6543 3.95625 9.81052 3.99063 9.77615C4.02188 9.75115 4.84375 9.47927 5.01562 9.43865C5.14062 9.41052 5.26562 9.4199 5.39688 9.4699Z" fill="black"/>
</g>
<defs>
<clipPath id="clip0_2_1855">
<rect width="16" height="16" fill="white"/>
</clipPath>
</defs>
</svg>
