<svg width="16" height="16" viewBox="0 0 16 16" fill="none" xmlns="http://www.w3.org/2000/svg">
<path d="M5.725 1.1875C5.575 1.28125 5.5 1.42188 5.5 1.625C5.5 1.82812 5.575 1.96875 5.725 2.0625C5.825 2.12187 5.8875 2.125 8 2.125C10.1125 2.125 10.175 2.12187 10.275 2.0625C10.425 1.96875 10.5 1.82812 10.5 1.625C10.5 1.42188 10.425 1.28125 10.275 1.1875C10.175 1.12813 10.1125 1.125 8 1.125C5.8875 1.125 5.825 1.12813 5.725 1.1875Z" fill="#BDBDBD"/>
<path d="M2.225 2.68828C2.075 2.78203 2 2.92266 2 3.12578C2 3.32891 2.075 3.46953 2.225 3.56328C2.3125 3.61641 2.38438 3.62578 2.66563 3.62578H3V8.38516C3 13.6914 2.98438 13.2883 3.225 13.782C3.46875 14.282 3.97812 14.6852 4.54688 14.8289C4.825 14.9008 11.175 14.9008 11.4531 14.8289C12.0219 14.6852 12.5312 14.282 12.775 13.782C13.0156 13.2883 13 13.6914 13 8.38516V3.62578H13.3375C13.6156 3.62578 13.6875 3.61641 13.775 3.56328C13.925 3.46953 14 3.32891 14 3.12578C14 2.92266 13.925 2.78203 13.775 2.68828C13.6719 2.62578 13.6031 2.62578 8 2.62578C2.39687 2.62578 2.32812 2.62578 2.225 2.68828ZM11.9938 8.31953L11.9844 13.0164L11.9094 13.1977C11.8125 13.4414 11.5656 13.6883 11.3219 13.7852L11.1406 13.8602H8H4.85938L4.67813 13.7852C4.43438 13.6883 4.1875 13.4414 4.09063 13.1977L4.01562 13.0164L4.00625 8.31953L3.99688 3.62578H8H12.0031L11.9938 8.31953Z" fill="#BDBDBD"/>
<path d="M5.975 5.9375C5.91875 5.97187 5.84688 6.04375 5.8125 6.1C5.75313 6.2 5.75 6.2625 5.75 8.875C5.75 11.4875 5.75313 11.55 5.8125 11.65C5.90625 11.8 6.04688 11.875 6.25 11.875C6.45312 11.875 6.59375 11.8 6.6875 11.65C6.74687 11.55 6.75 11.4875 6.75 8.875C6.75 6.2625 6.74687 6.2 6.6875 6.1C6.59375 5.95 6.45312 5.875 6.25 5.875C6.13438 5.875 6.04375 5.89375 5.975 5.9375Z" fill="#BDBDBD"/>
<path d="M9.475 5.9375C9.41875 5.97187 9.34688 6.04375 9.3125 6.1C9.25313 6.2 9.25 6.2625 9.25 8.875C9.25 11.4875 9.25313 11.55 9.3125 11.65C9.40625 11.8 9.54688 11.875 9.75 11.875C9.95312 11.875 10.0938 11.8 10.1875 11.65C10.2469 11.55 10.25 11.4875 10.25 8.875C10.25 6.2625 10.2469 6.2 10.1875 6.1C10.0938 5.95 9.95312 5.875 9.75 5.875C9.63438 5.875 9.54375 5.89375 9.475 5.9375Z" fill="#BDBDBD"/>
</svg>
