<svg width="16" height="16" viewBox="0 0 16 16" fill="none" xmlns="http://www.w3.org/2000/svg">
<g clip-path="url(#clip0_2_1864)">
<path d="M7.525 0.245112C6.85625 0.460737 6.4375 1.03886 6.4375 1.74824C6.4375 2.19199 6.60938 2.61386 6.90938 2.89511C7.0625 3.03886 7.35625 3.20761 7.53438 3.25136L7.6875 3.29199V3.76386V4.23261L7.375 4.28886C6.80625 4.38574 6.26562 4.60761 5.81875 4.92636L5.58437 5.09511L5.25 4.76386L4.91875 4.43261L5.00313 4.25449C5.47813 3.24824 4.80312 2.09199 3.69062 2.01074C2.74062 1.93886 1.94063 2.73886 2.0125 3.68886C2.09375 4.80136 3.25 5.47636 4.25625 5.00136L4.43438 4.91699L4.76562 5.24824L5.09688 5.58261L4.92812 5.81699C4.60938 6.26386 4.3875 6.80449 4.29063 7.37324L4.23438 7.68574H3.76562H3.29375L3.25312 7.53261C3.20937 7.35449 3.04063 7.06074 2.89688 6.90761C2.39688 6.37949 1.50625 6.27636 0.8875 6.68261C0.425 6.98261 0.1875 7.43261 0.1875 7.99824C0.1875 8.89511 0.853125 9.56074 1.75 9.56074C2.19375 9.56074 2.61563 9.38886 2.89688 9.08886C3.04063 8.93574 3.20937 8.64199 3.25312 8.46386L3.29375 8.31074H3.76562H4.23438L4.29063 8.62324C4.3875 9.19199 4.60938 9.73261 4.92812 10.1795L5.09688 10.4139L4.76562 10.7482L4.43438 11.0795L4.25625 10.9951C3.25 10.5201 2.09375 11.1951 2.0125 12.3076C1.94063 13.2576 2.74062 14.0576 3.69062 13.9857C4.8 13.9045 5.47813 12.7482 5.00313 11.742L4.91875 11.5639L5.25 11.2326L5.58437 10.9014L5.81875 11.0701C6.26562 11.3889 6.80625 11.6107 7.375 11.7076L7.6875 11.7639V12.2326V12.7045L7.53438 12.7451C7.35625 12.7889 7.0625 12.9576 6.90938 13.1014C6.3 13.6764 6.275 14.717 6.85313 15.3389C7.34688 15.867 8.24687 15.9701 8.8625 15.5639C9.325 15.2639 9.5625 14.8139 9.5625 14.2482C9.5625 13.8045 9.39062 13.3826 9.09062 13.1014C8.9375 12.9576 8.64375 12.7889 8.46562 12.7451L8.3125 12.7045V12.2326V11.7639L8.625 11.7076C9.19375 11.6107 9.73438 11.3889 10.1813 11.0701L10.4156 10.9014L10.75 11.2326L11.0813 11.5639L10.9969 11.742C10.6625 12.4482 10.8969 13.3014 11.5406 13.7264C12.4656 14.3357 13.7 13.8482 13.9531 12.7732C14.0781 12.242 13.925 11.7076 13.5312 11.3076C13.0594 10.8295 12.3563 10.7045 11.7438 10.9951L11.5656 11.0795L11.2344 10.7482L10.9031 10.4139L11.0719 10.1795C11.3906 9.73261 11.6125 9.19199 11.7094 8.62324L11.7656 8.31074H12.2344H12.7063L12.7469 8.46386C12.7906 8.64199 12.9594 8.93574 13.1031 9.08886C13.6031 9.61699 14.4938 9.72011 15.1125 9.31386C15.575 9.01386 15.8125 8.56386 15.8125 7.99824C15.8125 7.10136 15.1469 6.43574 14.25 6.43574C13.8062 6.43574 13.3844 6.60761 13.1031 6.90761C12.9594 7.06074 12.7906 7.35449 12.7469 7.53261L12.7063 7.68574H12.2344H11.7656L11.7094 7.37324C11.6125 6.80449 11.3906 6.26386 11.0719 5.81699L10.9031 5.58261L11.2344 5.24824L11.5656 4.91699L11.7438 5.00136C12.3563 5.29199 13.0594 5.16699 13.5312 4.68886C13.7563 4.46074 13.8813 4.23574 13.9531 3.92949C14.1938 2.90761 13.3594 1.93261 12.3094 2.01074C11.1969 2.09199 10.5219 3.24824 10.9969 4.25449L11.0813 4.43261L10.75 4.76386L10.4156 5.09511L10.1813 4.92636C9.73438 4.60761 9.19375 4.38574 8.625 4.28886L8.3125 4.23261V3.76386V3.29199L8.46562 3.25136C8.64375 3.20761 8.9375 3.03886 9.09062 2.89511C9.61875 2.39511 9.72188 1.50449 9.31563 0.885737C9.10938 0.566987 8.83125 0.357613 8.47188 0.248238C8.2125 0.166987 7.775 0.166987 7.525 0.245112ZM8.325 0.891988C8.49687 0.951363 8.7375 1.17324 8.82812 1.35761C8.875 1.45136 8.89062 1.54824 8.89062 1.74824C8.89062 2.05761 8.8375 2.19199 8.64062 2.38886C8.44375 2.58574 8.30937 2.63886 8 2.63886C7.69063 2.63886 7.55625 2.58574 7.35938 2.38886C7.1875 2.22011 7.11562 2.05449 7.1 1.80449C7.07188 1.37011 7.28438 1.04824 7.70312 0.882612C7.84062 0.829487 8.15312 0.835738 8.325 0.891988ZM3.98438 2.76386C4.16875 2.85136 4.30625 2.99199 4.4125 3.19511C4.51875 3.39511 4.5125 3.77011 4.4 3.98261C4.30312 4.17011 4.15937 4.30761 3.96875 4.40761C3.77187 4.51074 3.3875 4.51386 3.19688 4.41074C2.68125 4.13886 2.5125 3.55449 2.8125 3.08261C3.05938 2.69199 3.55938 2.55449 3.98438 2.76386ZM12.8281 2.76386C13.1469 2.91699 13.325 3.21074 13.3281 3.57636C13.3281 3.94199 13.1469 4.22949 12.8031 4.41074C12.6125 4.51386 12.2281 4.51074 12.0312 4.40761C11.8375 4.30761 11.6969 4.16699 11.6031 3.98574C11.2063 3.21074 12.0406 2.37636 12.8281 2.76386ZM2.14062 7.17011C2.3 7.24824 2.5 7.44824 2.57812 7.60761C2.625 7.70136 2.64062 7.79511 2.64062 7.99824C2.64062 8.30761 2.5875 8.44199 2.39062 8.63886C2.19375 8.83574 2.05938 8.88886 1.75 8.88886C1.54688 8.88886 1.45312 8.87324 1.35938 8.82636C1.19687 8.74824 1 8.54824 0.921875 8.38886C0.8375 8.21074 0.821875 7.88886 0.890625 7.68261C0.9625 7.47324 1.20625 7.21699 1.40625 7.14511C1.59687 7.07636 1.97187 7.08886 2.14062 7.17011ZM14.6406 7.17011C14.8 7.24824 15 7.44824 15.0781 7.60761C15.125 7.70136 15.1406 7.79511 15.1406 7.99824C15.1406 8.30761 15.0875 8.44199 14.8906 8.63886C14.6938 8.83574 14.5594 8.88886 14.25 8.88886C14.0469 8.88886 13.9531 8.87324 13.8594 8.82636C13.6969 8.74824 13.5 8.54824 13.4219 8.38886C13.3375 8.21074 13.3219 7.88886 13.3906 7.68261C13.4625 7.47324 13.7063 7.21699 13.9062 7.14511C14.0969 7.07636 14.4719 7.08886 14.6406 7.17011ZM3.96875 11.592C4.275 11.7451 4.46562 12.0264 4.49062 12.3576C4.54375 13.0451 3.80313 13.5451 3.18125 13.2389C2.44063 12.8732 2.51562 11.8357 3.30313 11.542C3.47188 11.4795 3.79375 11.5014 3.96875 11.592ZM12.8031 11.5889C13.1438 11.7607 13.3281 12.0545 13.3281 12.4201C13.325 12.942 12.9406 13.3264 12.4219 13.3264C12.0562 13.3264 11.7688 13.1451 11.5875 12.8014C11.4844 12.6107 11.4875 12.2264 11.5906 12.0295C11.7188 11.7826 11.9187 11.6139 12.1875 11.5264C12.325 11.4795 12.6625 11.5139 12.8031 11.5889ZM8.325 13.392C8.49687 13.4514 8.7375 13.6732 8.82812 13.8576C8.91562 14.0357 8.91562 14.4639 8.82812 14.6389C8.75 14.7982 8.55 14.9982 8.39062 15.0764C8.21562 15.1639 7.78438 15.1639 7.60938 15.0764C7.44688 14.9982 7.25 14.7982 7.17188 14.6389C7.09062 14.467 7.07188 14.1389 7.1375 13.942C7.29375 13.4764 7.83437 13.2264 8.325 13.392Z" fill="#7D7D7E"/>
</g>
<defs>
<clipPath id="clip0_2_1864">
<rect width="16" height="16" fill="white"/>
</clipPath>
</defs>
</svg>
