<svg width="40" height="40" viewBox="0 0 40 40" fill="none" xmlns="http://www.w3.org/2000/svg">
<g clip-path="url(#clip0_2_1904)">
<path d="M12.7558 12.0563C12.4527 12.1625 12.1746 12.4375 12.0558 12.75C11.9964 12.9063 11.9964 12.9906 12.0027 14.7125L12.0121 16.5156L12.1183 16.7125C12.2464 16.9469 12.4402 17.1344 12.6777 17.2438L12.8558 17.3281H15.6683H18.4808L18.6683 17.2375C18.9058 17.1188 19.1152 16.9094 19.2339 16.6719L19.3246 16.4844V14.6719V12.8594L19.2402 12.6813C19.1308 12.4438 18.9433 12.25 18.7089 12.1219L18.5121 12.0156L15.7152 12.0094C13.0933 12.0031 12.9089 12.0063 12.7558 12.0563Z" fill="#7D7D7E"/>
<path d="M21.4586 12.0437C21.1398 12.1594 20.8898 12.3844 20.7492 12.6844L20.668 12.8594V16.6719V20.4844L20.7586 20.6719C20.8773 20.9094 21.0867 21.1187 21.3242 21.2375L21.5117 21.3281H24.3242H27.1367L27.3148 21.2437C27.5523 21.1344 27.7461 20.9469 27.8742 20.7125L27.9805 20.5156V16.6719V12.8281L27.8961 12.6562C27.7867 12.4344 27.5617 12.2094 27.3398 12.1L27.168 12.0156L24.3711 12.0094C22.1242 12.0031 21.5523 12.0094 21.4586 12.0437Z" fill="#7D7D7E"/>
<path d="M12.818 18.7C12.5086 18.8 12.2617 19.0094 12.0992 19.3187L12.0117 19.4844V23.3281V27.1719L12.0961 27.3438C12.2055 27.5656 12.4305 27.7906 12.6523 27.9L12.8242 27.9844H15.668H18.5117L18.7086 27.8781C18.943 27.75 19.1305 27.5563 19.2398 27.3187L19.3242 27.1406V23.3281V19.5156L19.2336 19.3281C19.1148 19.0906 18.9055 18.8812 18.668 18.7625L18.4805 18.6719L15.7148 18.6656C13.4898 18.6625 12.9242 18.6687 12.818 18.7Z" fill="#7D7D7E"/>
<path d="M21.4407 22.7188C21.2095 22.8031 21.0032 22.9594 20.8626 23.1563C20.647 23.4656 20.6501 23.4438 20.6595 25.3938L20.6688 27.1406L20.7532 27.3188C20.8626 27.5563 21.0501 27.75 21.2845 27.8781L21.4813 27.9844H24.3251H27.1688L27.3407 27.9C27.5626 27.7906 27.7876 27.5656 27.897 27.3438L27.9813 27.1719V25.3281V23.4844L27.8751 23.2875C27.747 23.0531 27.5532 22.8656 27.3157 22.7563L27.1376 22.6719L24.372 22.6656C21.7126 22.6594 21.6001 22.6594 21.4407 22.7188Z" fill="#7D7D7E"/>
</g>
<defs>
<clipPath id="clip0_2_1904">
<rect width="16" height="16" fill="white" transform="translate(12 12)"/>
</clipPath>
</defs>
</svg>
