<svg width="125" height="69" viewBox="0 0 125 69" fill="none" xmlns="http://www.w3.org/2000/svg">
<path d="M0 56.4764C0 55.4125 0.239912 54.4581 0.719736 53.6131C1.19956 52.7578 1.8515 52.0902 2.67554 51.6104C3.51002 51.1306 4.43316 50.8907 5.44496 50.8907C6.63409 50.8907 7.67197 51.1775 8.5586 51.7512C9.44523 52.3249 10.092 53.1385 10.4988 54.1921H8.7933C8.4908 53.5349 8.0527 53.029 7.479 52.6744C6.91573 52.3197 6.23771 52.1424 5.44496 52.1424C4.6835 52.1424 4.00027 52.3197 3.39528 52.6744C2.79028 53.029 2.31567 53.5349 1.97145 54.1921C1.62723 54.8388 1.45512 55.6002 1.45512 56.4764C1.45512 57.3422 1.62723 58.1037 1.97145 58.7608C2.31567 59.4075 2.79028 59.9082 3.39528 60.2629C4.00027 60.6175 4.6835 60.7949 5.44496 60.7949C6.23771 60.7949 6.91573 60.6228 7.479 60.2785C8.0527 59.9239 8.4908 59.418 8.7933 58.7608H10.4988C10.092 59.8039 9.44523 60.6123 8.5586 61.186C7.67197 61.7493 6.63409 62.0309 5.44496 62.0309C4.43316 62.0309 3.51002 61.7962 2.67554 61.3268C1.8515 60.847 1.19956 60.1847 0.719736 59.3397C0.239912 58.4948 0 57.5404 0 56.4764Z" fill="white"/>
<path d="M19.0646 59.5119H14.3081L13.4319 61.9371H11.9298L15.8727 51.0941H17.5156L21.4428 61.9371H19.9408L19.0646 59.5119ZM18.6578 58.354L16.6863 52.8465L14.7149 58.354H18.6578Z" fill="white"/>
<path d="M28.9035 61.9371L26.3062 57.4778H24.5851V61.9371H23.1613V51.0315H26.6817C27.5057 51.0315 28.1994 51.1723 28.7627 51.4539C29.3364 51.7356 29.764 52.1163 30.0457 52.5961C30.3273 53.076 30.4681 53.6236 30.4681 54.239C30.4681 54.99 30.2491 55.6524 29.811 56.2261C29.3833 56.7998 28.7366 57.1805 27.8708 57.3683L30.609 61.9371H28.9035ZM24.5851 56.3356H26.6817C27.4536 56.3356 28.0325 56.1479 28.4185 55.7724C28.8044 55.3864 28.9974 54.8753 28.9974 54.239C28.9974 53.5923 28.8044 53.0916 28.4185 52.7369C28.0429 52.3823 27.464 52.205 26.6817 52.205H24.5851V56.3356Z" fill="white"/>
<path d="M38.4228 61.9371L35.8255 57.4778H34.1043V61.9371H32.6805V51.0315H36.201C37.025 51.0315 37.7187 51.1723 38.2819 51.4539C38.8556 51.7356 39.2833 52.1163 39.565 52.5961C39.8466 53.076 39.9874 53.6236 39.9874 54.239C39.9874 54.99 39.7684 55.6524 39.3303 56.2261C38.9026 56.7998 38.2559 57.1805 37.3901 57.3683L40.1282 61.9371H38.4228ZM34.1043 56.3356H36.201C36.9729 56.3356 37.5518 56.1479 37.9377 55.7724C38.3237 55.3864 38.5166 54.8753 38.5166 54.239C38.5166 53.5923 38.3237 53.0916 37.9377 52.7369C37.5622 52.3823 36.9833 52.205 36.201 52.205H34.1043V56.3356Z" fill="white"/>
<path d="M43.6236 51.0315V61.9371H42.1998V51.0315H43.6236Z" fill="white"/>
<path d="M47.4741 52.1893V55.8349H51.4483V57.0084H47.4741V60.7636H51.9177V61.9371H46.0503V51.0158H51.9177V52.1893H47.4741Z" fill="white"/>
<path d="M59.8144 61.9371L57.2171 57.4778H55.496V61.9371H54.0721V51.0315H57.5926C58.4166 51.0315 59.1103 51.1723 59.6736 51.4539C60.2473 51.7356 60.6749 52.1163 60.9566 52.5961C61.2382 53.076 61.379 53.6236 61.379 54.239C61.379 54.99 61.16 55.6524 60.7219 56.2261C60.2942 56.7998 59.6475 57.1805 58.7817 57.3683L61.5198 61.9371H59.8144ZM55.496 56.3356H57.5926C58.3645 56.3356 58.9434 56.1479 59.3293 55.7724C59.7153 55.3864 59.9083 54.8753 59.9083 54.239C59.9083 53.5923 59.7153 53.0916 59.3293 52.7369C58.9538 52.3823 58.3749 52.205 57.5926 52.205H55.496V56.3356Z" fill="white"/>
<path d="M65.6567 60.2003H69.2554V61.9371H63.4662V51.0158H65.6567V60.2003Z" fill="white"/>
<path d="M75.7172 62.0466C74.6949 62.0466 73.7561 61.8067 72.9008 61.3268C72.0455 60.847 71.3674 60.1847 70.8668 59.3397C70.3661 58.4844 70.1157 57.5195 70.1157 56.4452C70.1157 55.3812 70.3661 54.4268 70.8668 53.5819C71.3674 52.7265 72.0455 52.0589 72.9008 51.5791C73.7561 51.0993 74.6949 50.8594 75.7172 50.8594C76.7498 50.8594 77.6886 51.0993 78.5335 51.5791C79.3889 52.0589 80.0616 52.7265 80.5519 53.5819C81.0526 54.4268 81.3029 55.3812 81.3029 56.4452C81.3029 57.5195 81.0526 58.4844 80.5519 59.3397C80.0616 60.1847 79.3889 60.847 78.5335 61.3268C77.6782 61.8067 76.7394 62.0466 75.7172 62.0466ZM75.7172 60.0908C76.3743 60.0908 76.9532 59.9447 77.4539 59.6527C77.9546 59.3502 78.3458 58.9225 78.6274 58.3697C78.909 57.8168 79.0498 57.1753 79.0498 56.4452C79.0498 55.715 78.909 55.0787 78.6274 54.5363C78.3458 53.9834 77.9546 53.561 77.4539 53.2689C76.9532 52.9769 76.3743 52.8308 75.7172 52.8308C75.06 52.8308 74.4759 52.9769 73.9648 53.2689C73.4641 53.561 73.0729 53.9834 72.7913 54.5363C72.5096 55.0787 72.3688 55.715 72.3688 56.4452C72.3688 57.1753 72.5096 57.8168 72.7913 58.3697C73.0729 58.9225 73.4641 59.3502 73.9648 59.6527C74.4759 59.9447 75.06 60.0908 75.7172 60.0908Z" fill="white"/>
<path d="M88.002 62.0466C86.9798 62.0466 86.041 61.8067 85.1857 61.3268C84.3303 60.847 83.6523 60.1847 83.1516 59.3397C82.651 58.4844 82.4006 57.5195 82.4006 56.4452C82.4006 55.3812 82.651 54.4268 83.1516 53.5819C83.6523 52.7265 84.3303 52.0589 85.1857 51.5791C86.041 51.0993 86.9798 50.8594 88.002 50.8594C89.0347 50.8594 89.9735 51.0993 90.8184 51.5791C91.6737 52.0589 92.3465 52.7265 92.8368 53.5819C93.3375 54.4268 93.5878 55.3812 93.5878 56.4452C93.5878 57.5195 93.3375 58.4844 92.8368 59.3397C92.3465 60.1847 91.6737 60.847 90.8184 61.3268C89.9631 61.8067 89.0243 62.0466 88.002 62.0466ZM88.002 60.0908C88.6592 60.0908 89.2381 59.9447 89.7388 59.6527C90.2395 59.3502 90.6306 58.9225 90.9123 58.3697C91.1939 57.8168 91.3347 57.1753 91.3347 56.4452C91.3347 55.715 91.1939 55.0787 90.9123 54.5363C90.6306 53.9834 90.2395 53.561 89.7388 53.2689C89.2381 52.9769 88.6592 52.8308 88.002 52.8308C87.3449 52.8308 86.7608 52.9769 86.2496 53.2689C85.749 53.561 85.3578 53.9834 85.0762 54.5363C84.7945 55.0787 84.6537 55.715 84.6537 56.4452C84.6537 57.1753 84.7945 57.8168 85.0762 58.3697C85.3578 58.9225 85.749 59.3502 86.2496 59.6527C86.7608 59.9447 87.3449 60.0908 88.002 60.0908Z" fill="white"/>
<path d="M101.382 61.9371L97.408 57.071V61.9371H95.2175V51.0158H97.408V55.9132L101.382 51.0158H104.026L99.5203 56.4295L104.152 61.9371H101.382Z" fill="white"/>
<path d="M107.752 51.0158V57.7751C107.752 58.5157 107.945 59.0842 108.331 59.4806C108.716 59.8665 109.259 60.0595 109.958 60.0595C110.667 60.0595 111.215 59.8665 111.601 59.4806C111.987 59.0842 112.18 58.5157 112.18 57.7751V51.0158H114.386V57.7595C114.386 58.6878 114.182 59.4753 113.776 60.1221C113.379 60.7584 112.842 61.2382 112.164 61.5615C111.496 61.8849 110.751 62.0466 109.926 62.0466C109.113 62.0466 108.372 61.8849 107.705 61.5615C107.048 61.2382 106.526 60.7584 106.14 60.1221C105.754 59.4753 105.561 58.6878 105.561 57.7595V51.0158H107.752Z" fill="white"/>
<path d="M124.466 54.3955C124.466 54.9796 124.325 55.5272 124.044 56.0383C123.773 56.5495 123.34 56.9615 122.745 57.2744C122.161 57.5873 121.42 57.7438 120.523 57.7438H118.693V61.9371H116.502V51.0158H120.523C121.368 51.0158 122.088 51.1619 122.682 51.4539C123.277 51.746 123.72 52.1476 124.012 52.6587C124.315 53.1698 124.466 53.7487 124.466 54.3955ZM120.429 55.9758C121.034 55.9758 121.483 55.8402 121.775 55.569C122.067 55.2873 122.213 54.8962 122.213 54.3955C122.213 53.3315 121.619 52.7995 120.429 52.7995H118.693V55.9758H120.429Z" fill="white"/>
<path d="M11.8086 68.1804L13.5759 64.3144H13.9791L15.7464 68.1804H15.3156L13.6919 64.5519H13.8576L12.2339 68.1804H11.8086ZM12.5045 67.1476L12.626 66.8163H14.8738L14.9953 67.1476H12.5045Z" fill="white"/>
<path d="M19.3917 68.2136C19.1008 68.2136 18.832 68.1657 18.5854 68.07C18.3387 67.9705 18.1251 67.8325 17.9447 67.6557C17.7643 67.479 17.6225 67.271 17.5194 67.0317C17.42 66.7923 17.3703 66.5309 17.3703 66.2474C17.3703 65.9639 17.42 65.7025 17.5194 65.4631C17.6225 65.2238 17.7643 65.0158 17.9447 64.8391C18.1288 64.6623 18.3442 64.5261 18.5909 64.4304C18.8376 64.331 19.1064 64.2812 19.3972 64.2812C19.6771 64.2812 19.9403 64.3291 20.187 64.4248C20.4337 64.5169 20.6417 64.6568 20.8111 64.8446L20.5515 65.1042C20.3932 64.9422 20.2183 64.8262 20.0268 64.7562C19.8354 64.6826 19.6292 64.6458 19.4083 64.6458C19.1763 64.6458 18.9609 64.6863 18.7621 64.7673C18.5633 64.8446 18.3902 64.9569 18.2429 65.1042C18.0957 65.2478 17.9797 65.4171 17.895 65.6123C17.814 65.8037 17.7735 66.0154 17.7735 66.2474C17.7735 66.4794 17.814 66.6929 17.895 66.8881C17.9797 67.0795 18.0957 67.2489 18.2429 67.3962C18.3902 67.5398 18.5633 67.6521 18.7621 67.7331C18.9609 67.8104 19.1763 67.849 19.4083 67.849C19.6292 67.849 19.8354 67.8122 20.0268 67.7386C20.2183 67.6649 20.3932 67.5471 20.5515 67.3851L20.8111 67.6447C20.6417 67.8325 20.4337 67.9742 20.187 68.07C19.9403 68.1657 19.6752 68.2136 19.3917 68.2136Z" fill="white"/>
<path d="M24.6611 68.2136C24.3702 68.2136 24.1014 68.1657 23.8548 68.07C23.6081 67.9705 23.3945 67.8325 23.2141 67.6557C23.0337 67.479 22.8919 67.271 22.7888 67.0317C22.6894 66.7923 22.6397 66.5309 22.6397 66.2474C22.6397 65.9639 22.6894 65.7025 22.7888 65.4631C22.8919 65.2238 23.0337 65.0158 23.2141 64.8391C23.3982 64.6623 23.6136 64.5261 23.8603 64.4304C24.107 64.331 24.3758 64.2812 24.6666 64.2812C24.9465 64.2812 25.2097 64.3291 25.4564 64.4248C25.7031 64.5169 25.9111 64.6568 26.0805 64.8446L25.8209 65.1042C25.6626 64.9422 25.4877 64.8262 25.2962 64.7562C25.1048 64.6826 24.8986 64.6458 24.6777 64.6458C24.4457 64.6458 24.2303 64.6863 24.0315 64.7673C23.8327 64.8446 23.6596 64.9569 23.5123 65.1042C23.3651 65.2478 23.2491 65.4171 23.1644 65.6123C23.0834 65.8037 23.0429 66.0154 23.0429 66.2474C23.0429 66.4794 23.0834 66.6929 23.1644 66.8881C23.2491 67.0795 23.3651 67.2489 23.5123 67.3962C23.6596 67.5398 23.8327 67.6521 24.0315 67.7331C24.2303 67.8104 24.4457 67.849 24.6777 67.849C24.8986 67.849 25.1048 67.8122 25.2962 67.7386C25.4877 67.6649 25.6626 67.5471 25.8209 67.3851L26.0805 67.6447C25.9111 67.8325 25.7031 67.9742 25.4564 68.07C25.2097 68.1657 24.9446 68.2136 24.6611 68.2136Z" fill="white"/>
<path d="M29.8899 68.2136C29.3965 68.2136 29.0081 68.0718 28.7246 67.7883C28.4411 67.5048 28.2993 67.085 28.2993 66.5291V64.3144H28.708V66.5125C28.708 66.9691 28.8111 67.306 29.0173 67.5232C29.2235 67.7404 29.5143 67.849 29.8899 67.849C30.2691 67.849 30.5619 67.7404 30.768 67.5232C30.9742 67.306 31.0773 66.9691 31.0773 66.5125V64.3144H31.475V66.5291C31.475 67.085 31.3332 67.5048 31.0497 67.7883C30.7699 68.0718 30.3833 68.2136 29.8899 68.2136Z" fill="white"/>
<path d="M34.0873 68.1804V64.3144H35.5343C35.862 64.3144 36.1436 64.3678 36.3793 64.4746C36.6149 64.5776 36.7953 64.7286 36.9205 64.9274C37.0494 65.1226 37.1138 65.3601 37.1138 65.6399C37.1138 65.9123 37.0494 66.148 36.9205 66.3468C36.7953 66.542 36.6149 66.6929 36.3793 66.7997C36.1436 66.9028 35.862 66.9543 35.5343 66.9543H34.3137L34.496 66.7666V68.1804H34.0873ZM36.7272 68.1804L35.7331 66.7776H36.1749L37.1746 68.1804H36.7272ZM34.496 66.7997L34.3137 66.6064H35.5232C35.9098 66.6064 36.2025 66.5217 36.4014 66.3523C36.6039 66.183 36.7051 65.9455 36.7051 65.6399C36.7051 65.3306 36.6039 65.0913 36.4014 64.9219C36.2025 64.7525 35.9098 64.6679 35.5232 64.6679H34.3137L34.496 64.4746V66.7997Z" fill="white"/>
<path d="M38.8406 68.1804L40.6079 64.3144H41.0111L42.7784 68.1804H42.3476L40.7239 64.5519H40.8896L39.2658 68.1804H38.8406ZM39.5365 67.1476L39.658 66.8163H41.9058L42.0273 67.1476H39.5365Z" fill="white"/>
<path d="M45.3556 68.1804V64.6679H43.997V64.3144H47.1229V64.6679H45.7643V68.1804H45.3556Z" fill="white"/>
<path d="M49.5211 66.0431H51.5645V66.391H49.5211V66.0431ZM49.5653 67.8269H51.8904V68.1804H49.1566V64.3144H51.8076V64.6679H49.5653V67.8269Z" fill="white"/>
<path d="M58.7369 68.2136C58.4461 68.2136 58.1773 68.1657 57.9306 68.07C57.6839 67.9705 57.4704 67.8325 57.2899 67.6557C57.1095 67.479 56.9678 67.271 56.8647 67.0317C56.7653 66.7923 56.7156 66.5309 56.7156 66.2474C56.7156 65.9639 56.7653 65.7025 56.8647 65.4631C56.9678 65.2238 57.1095 65.0158 57.2899 64.8391C57.474 64.6623 57.6894 64.5261 57.9361 64.4304C58.1828 64.331 58.4516 64.2812 58.7425 64.2812C59.0223 64.2812 59.2855 64.3291 59.5322 64.4248C59.7789 64.5169 59.9869 64.6568 60.1563 64.8446L59.8967 65.1042C59.7384 64.9422 59.5635 64.8262 59.3721 64.7562C59.1806 64.6826 58.9744 64.6458 58.7535 64.6458C58.5215 64.6458 58.3061 64.6863 58.1073 64.7673C57.9085 64.8446 57.7355 64.9569 57.5882 65.1042C57.4409 65.2478 57.3249 65.4171 57.2402 65.6123C57.1592 65.8037 57.1187 66.0154 57.1187 66.2474C57.1187 66.4794 57.1592 66.6929 57.2402 66.8881C57.3249 67.0795 57.4409 67.2489 57.5882 67.3962C57.7355 67.5398 57.9085 67.6521 58.1073 67.7331C58.3061 67.8104 58.5215 67.849 58.7535 67.849C58.9744 67.849 59.1806 67.8122 59.3721 67.7386C59.5635 67.6649 59.7384 67.5471 59.8967 67.3851L60.1563 67.6447C59.9869 67.8325 59.7789 67.9742 59.5322 68.07C59.2855 68.1657 59.0204 68.2136 58.7369 68.2136Z" fill="white"/>
<path d="M61.6926 68.1804L63.46 64.3144H63.8631L65.6305 68.1804H65.1997L63.5759 64.5519H63.7416L62.1179 68.1804H61.6926ZM62.3885 67.1476L62.51 66.8163H64.7578L64.8793 67.1476H62.3885Z" fill="white"/>
<path d="M67.6507 68.1804V64.3144H69.0977C69.4254 64.3144 69.7071 64.3678 69.9427 64.4746C70.1784 64.5776 70.3588 64.7286 70.484 64.9274C70.6128 65.1226 70.6773 65.3601 70.6773 65.6399C70.6773 65.9123 70.6128 66.148 70.484 66.3468C70.3588 66.542 70.1784 66.6929 69.9427 66.7997C69.7071 66.9028 69.4254 66.9543 69.0977 66.9543H67.8772L68.0594 66.7666V68.1804H67.6507ZM70.2907 68.1804L69.2965 66.7776H69.7384L70.738 68.1804H70.2907ZM68.0594 66.7997L67.8772 66.6064H69.0867C69.4733 66.6064 69.766 66.5217 69.9648 66.3523C70.1673 66.183 70.2686 65.9455 70.2686 65.6399C70.2686 65.3306 70.1673 65.0913 69.9648 64.9219C69.766 64.7525 69.4733 64.6679 69.0867 64.6679H67.8772L68.0594 64.4746V66.7997Z" fill="white"/>
<path d="M73.0226 68.1804V64.3144H74.4696C74.7973 64.3144 75.079 64.3678 75.3146 64.4746C75.5502 64.5776 75.7307 64.7286 75.8558 64.9274C75.9847 65.1226 76.0491 65.3601 76.0491 65.6399C76.0491 65.9123 75.9847 66.148 75.8558 66.3468C75.7307 66.542 75.5502 66.6929 75.3146 66.7997C75.079 66.9028 74.7973 66.9543 74.4696 66.9543H73.249L73.4313 66.7666V68.1804H73.0226ZM75.6625 68.1804L74.6684 66.7776H75.1102L76.1099 68.1804H75.6625ZM73.4313 66.7997L73.249 66.6064H74.4585C74.8451 66.6064 75.1379 66.5217 75.3367 66.3523C75.5392 66.183 75.6404 65.9455 75.6404 65.6399C75.6404 65.3306 75.5392 65.0913 75.3367 64.9219C75.1379 64.7525 74.8451 64.6679 74.4585 64.6679H73.249L73.4313 64.4746V66.7997Z" fill="white"/>
<path d="M78.3945 68.1804V64.3144H78.8032V68.1804H78.3945Z" fill="white"/>
<path d="M81.8063 66.0431H83.8498V66.391H81.8063V66.0431ZM81.8505 67.8269H84.1756V68.1804H81.4418V64.3144H84.0928V64.6679H81.8505V67.8269Z" fill="white"/>
<path d="M86.517 68.1804V64.3144H87.964C88.2917 64.3144 88.5734 64.3678 88.809 64.4746C89.0447 64.5776 89.2251 64.7286 89.3503 64.9274C89.4791 65.1226 89.5436 65.3601 89.5436 65.6399C89.5436 65.9123 89.4791 66.148 89.3503 66.3468C89.2251 66.542 89.0447 66.6929 88.809 66.7997C88.5734 66.9028 88.2917 66.9543 87.964 66.9543H86.7434L86.9257 66.7666V68.1804H86.517ZM89.157 68.1804L88.1628 66.7776H88.6047L89.6043 68.1804H89.157ZM86.9257 66.7997L86.7434 66.6064H87.953C88.3396 66.6064 88.6323 66.5217 88.8311 66.3523C89.0336 66.183 89.1349 65.9455 89.1349 65.6399C89.1349 65.3306 89.0336 65.0913 88.8311 64.9219C88.6323 64.7525 88.3396 64.6679 87.953 64.6679H86.7434L86.9257 64.4746V66.7997Z" fill="white"/>
<path d="M94.7151 68.1804V64.3144H95.1237V68.1804H94.7151Z" fill="white"/>
<path d="M97.7624 68.1804V64.3144H98.0993L100.767 67.6723H100.59V64.3144H100.993V68.1804H100.656L97.9943 64.8225H98.1711V68.1804H97.7624Z" fill="white"/>
<path d="M104 66.1866H106.044V66.5401H104V66.1866ZM104.045 68.1804H103.636V64.3144H106.287V64.6679H104.045V68.1804Z" fill="white"/>
<path d="M110.153 68.2136C109.862 68.2136 109.591 68.1657 109.341 68.07C109.094 67.9705 108.879 67.8325 108.695 67.6557C108.515 67.4753 108.373 67.2673 108.27 67.0317C108.17 66.7923 108.121 66.5309 108.121 66.2474C108.121 65.9639 108.17 65.7043 108.27 65.4687C108.373 65.2293 108.515 65.0213 108.695 64.8446C108.879 64.6642 109.094 64.5261 109.341 64.4304C109.588 64.331 109.858 64.2812 110.153 64.2812C110.444 64.2812 110.713 64.331 110.959 64.4304C111.206 64.5261 111.42 64.6623 111.6 64.8391C111.784 65.0158 111.926 65.2238 112.025 65.4631C112.128 65.7025 112.18 65.9639 112.18 66.2474C112.18 66.5309 112.128 66.7923 112.025 67.0317C111.926 67.271 111.784 67.479 111.6 67.6557C111.42 67.8325 111.206 67.9705 110.959 68.07C110.713 68.1657 110.444 68.2136 110.153 68.2136ZM110.153 67.849C110.385 67.849 110.598 67.8104 110.794 67.7331C110.992 67.6521 111.164 67.5398 111.307 67.3962C111.455 67.2489 111.569 67.0795 111.65 66.8881C111.731 66.6929 111.771 66.4794 111.771 66.2474C111.771 66.0154 111.731 65.8037 111.65 65.6123C111.569 65.4171 111.455 65.2478 111.307 65.1042C111.164 64.9569 110.992 64.8446 110.794 64.7673C110.598 64.6863 110.385 64.6458 110.153 64.6458C109.921 64.6458 109.706 64.6863 109.507 64.7673C109.308 64.8446 109.135 64.9569 108.988 65.1042C108.844 65.2478 108.73 65.4171 108.645 65.6123C108.564 65.8037 108.524 66.0154 108.524 66.2474C108.524 66.4757 108.564 66.6874 108.645 66.8825C108.73 67.0777 108.844 67.2489 108.988 67.3962C109.135 67.5398 109.308 67.6521 109.507 67.7331C109.706 67.8104 109.921 67.849 110.153 67.849Z" fill="white"/>
<path d="M62.1954 42.4689C50.4857 42.4689 40.9609 32.9441 40.9609 21.2344C40.9609 9.52477 50.4857 0 62.1954 0C73.9051 0 83.4298 9.52477 83.4298 21.2344C83.4298 22.0056 82.804 22.6315 82.0328 22.6315C81.2617 22.6315 80.6358 22.0056 80.6358 21.2344C80.6358 11.0671 72.3628 2.79401 62.1954 2.79401C52.028 2.79401 43.7549 11.0671 43.7549 21.2344C43.7549 31.4018 52.028 39.6749 62.1954 39.6749C62.9665 39.6749 63.5924 40.3008 63.5924 41.0719C63.5924 41.843 62.9665 42.4689 62.1954 42.4689Z" fill="#FF7901"/>
<path d="M62.1984 24.3109C63.8958 24.3109 65.2718 22.9349 65.2718 21.2375C65.2718 19.5401 63.8958 18.1641 62.1984 18.1641C60.501 18.1641 59.125 19.5401 59.125 21.2375C59.125 22.9349 60.501 24.3109 62.1984 24.3109Z" fill="#FF7901"/>
<path d="M62.197 25.7064C59.7327 25.7064 57.7266 23.7003 57.7266 21.236C57.7266 18.7717 59.7327 16.7656 62.197 16.7656C64.6613 16.7656 66.6674 18.7717 66.6674 21.236C66.6674 23.7003 64.6613 25.7064 62.197 25.7064ZM62.197 19.5596C61.2722 19.5596 60.5206 20.3112 60.5206 21.236C60.5206 22.1609 61.2722 22.9124 62.197 22.9124C63.1218 22.9124 63.8734 22.1609 63.8734 21.236C63.8734 20.3112 63.1218 19.5596 62.197 19.5596Z" fill="#FF7901"/>
<path d="M76.4433 22.6294C75.6722 22.6294 75.0463 22.0035 75.0463 21.2324C75.0463 14.1468 69.2795 8.37994 62.1939 8.37994C61.4227 8.37994 60.7969 7.75409 60.7969 6.98294C60.7969 6.2118 61.4227 5.58594 62.1939 5.58594C70.8218 5.58594 77.8403 12.6045 77.8403 21.2324C77.8403 22.0035 77.2145 22.6294 76.4433 22.6294Z" fill="#FF7901"/>
<path d="M83.4298 21.2342H80.6358C80.6358 11.0668 72.3627 2.79376 62.1953 2.79376V-0.000244141C73.905 -0.000244141 83.4298 9.52452 83.4298 21.2342Z" fill="#FF7901"/>
<path d="M70.8553 22.6312C70.0842 22.6312 69.4583 22.0054 69.4583 21.2342C69.4583 17.2276 66.2005 13.9698 62.1939 13.9698C61.4227 13.9698 60.7969 13.3439 60.7969 12.5728C60.7969 11.8016 61.4227 11.1758 62.1939 11.1758C67.74 11.1758 72.2523 15.6881 72.2523 21.2342C72.2523 22.0054 71.6264 22.6312 70.8553 22.6312Z" fill="#FF7901"/>
</svg>
