<svg width="16" height="16" viewBox="0 0 16 16" fill="none" xmlns="http://www.w3.org/2000/svg">
<path d="M15.5928 4.26709L8.27782 1.005C8.10072 0.925415 7.89831 0.925415 7.72028 1.005L0.405665 4.26709C0.1669 4.3734 0.00922521 4.6074 0.000370553 4.86895C-0.00817341 5.12998 0.131585 5.37387 0.362479 5.4967L7.67699 9.39756C7.77787 9.45167 7.88842 9.47813 7.99928 9.47813C8.11072 9.47813 8.22112 9.45167 8.32214 9.39756L15.637 5.4967C15.8677 5.37387 16.0076 5.12998 15.9992 4.86895C15.9892 4.6074 15.8319 4.3734 15.5928 4.26709Z" fill="#7D7D7E"/>
<path d="M14.9922 7.18259L7.99933 10.9129L1.00762 7.18259C0.672903 7.004 0.258443 7.13071 0.0810392 7.4648C-0.0976074 7.79874 0.0291022 8.2131 0.362886 8.39123L7.6774 12.2932C7.77827 12.3469 7.88883 12.3737 7.99969 12.3737C8.11112 12.3737 8.22152 12.3473 8.32255 12.2932L15.6374 8.39123C15.9704 8.2131 16.097 7.79874 15.9194 7.4648C15.7406 7.13065 15.3259 7.00394 14.9922 7.18259Z" fill="#7D7D7E"/>
<path d="M14.9922 9.86235L7.99933 13.5915L1.00762 9.86235C0.672903 9.6836 0.258443 9.81047 0.0810392 10.1441C-0.0976074 10.478 0.0291022 10.8928 0.362886 11.0707L7.6774 14.9714C7.77827 15.0255 7.88883 15.0523 7.99969 15.0523C8.11112 15.0523 8.22152 15.0259 8.32255 14.9714L15.6374 11.0707C15.9704 10.8928 16.097 10.4781 15.9194 10.1441C15.7406 9.81047 15.3264 9.68355 14.9922 9.86235Z" fill="#7D7D7E"/>
</svg>
