<svg width="20" height="20" viewBox="0 0 20 20" fill="none" xmlns="http://www.w3.org/2000/svg">
<g clip-path="url(#clip0_2_1905)">
<path d="M2.75581 2.05625C2.45269 2.1625 2.17456 2.4375 2.05581 2.75C1.99644 2.90625 1.99644 2.99063 2.00269 4.7125L2.01206 6.51563L2.11831 6.7125C2.24644 6.94688 2.44019 7.13438 2.67769 7.24375L2.85581 7.32812H5.66831H8.48081L8.66831 7.2375C8.90581 7.11875 9.11519 6.90938 9.23394 6.67188L9.32456 6.48438V4.67188V2.85938L9.24019 2.68125C9.13081 2.44375 8.94331 2.25 8.70894 2.12188L8.51206 2.01563L5.71519 2.00938C3.09331 2.00313 2.90894 2.00625 2.75581 2.05625Z" fill="#7D7D7E"/>
<path d="M11.4586 2.04375C11.1398 2.15937 10.8898 2.38437 10.7492 2.68437L10.668 2.85937V6.67187V10.4844L10.7586 10.6719C10.8773 10.9094 11.0867 11.1187 11.3242 11.2375L11.5117 11.3281H14.3242H17.1367L17.3148 11.2437C17.5523 11.1344 17.7461 10.9469 17.8742 10.7125L17.9805 10.5156V6.67187V2.82812L17.8961 2.65625C17.7867 2.43437 17.5617 2.20937 17.3398 2.1L17.168 2.01562L14.3711 2.00937C12.1242 2.00312 11.5523 2.00937 11.4586 2.04375Z" fill="#7D7D7E"/>
<path d="M2.81797 8.7C2.50859 8.8 2.26172 9.00937 2.09922 9.31875L2.01172 9.48437V13.3281V17.1719L2.09609 17.3437C2.20547 17.5656 2.43047 17.7906 2.65234 17.9L2.82422 17.9844H5.66797H8.51172L8.70859 17.8781C8.94297 17.75 9.13047 17.5562 9.23984 17.3187L9.32422 17.1406V13.3281V9.51562L9.23359 9.32812C9.11484 9.09062 8.90547 8.88125 8.66797 8.7625L8.48047 8.67187L5.71484 8.66562C3.48984 8.6625 2.92422 8.66875 2.81797 8.7Z" fill="#7D7D7E"/>
<path d="M11.4407 12.7188C11.2095 12.8031 11.0032 12.9594 10.8626 13.1563C10.647 13.4656 10.6501 13.4438 10.6595 15.3938L10.6688 17.1406L10.7532 17.3188C10.8626 17.5563 11.0501 17.75 11.2845 17.8781L11.4813 17.9844H14.3251H17.1688L17.3407 17.9C17.5626 17.7906 17.7876 17.5656 17.897 17.3438L17.9813 17.1719V15.3281V13.4844L17.8751 13.2875C17.747 13.0531 17.5532 12.8656 17.3157 12.7563L17.1376 12.6719L14.372 12.6656C11.7126 12.6594 11.6001 12.6594 11.4407 12.7188Z" fill="#7D7D7E"/>
</g>
<defs>
<clipPath id="clip0_2_1905">
<rect width="16" height="16" fill="white" transform="translate(2 2)"/>
</clipPath>
</defs>
</svg>
