<svg width="24" height="24" viewBox="0 0 24 24" fill="none" xmlns="http://www.w3.org/2000/svg">
<path d="M11.25 3C11.25 2.80109 11.329 2.61032 11.4697 2.46967C11.6103 2.32902 11.8011 2.25 12 2.25L16 2.25C17.2593 2.25159 18.4666 2.75254 19.357 3.643C20.2475 4.53345 20.7484 5.74071 20.75 7L20.75 17C20.7484 18.2593 20.2475 19.4665 19.357 20.357C18.4665 21.2475 17.2593 21.7484 16 21.75L12 21.75C11.8011 21.75 11.6103 21.671 11.4697 21.5303C11.329 21.3897 11.25 21.1989 11.25 21C11.25 20.8011 11.329 20.6103 11.4697 20.4697C11.6103 20.329 11.8011 20.25 12 20.25L16 20.25C16.8616 20.2489 17.6877 19.9062 18.2969 19.2969C18.9062 18.6877 19.2489 17.8616 19.25 17L19.25 7C19.2489 6.13837 18.9062 5.31234 18.2969 4.70307C17.6877 4.09381 16.8616 3.75106 16 3.75L12 3.75C11.8011 3.75 11.6103 3.67098 11.4697 3.53033C11.329 3.38968 11.25 3.19891 11.25 3ZM3.47 12.53L7.47 16.53C7.53922 16.6016 7.622 16.6587 7.71353 16.698C7.80505 16.7372 7.90347 16.7579 8.00306 16.7587C8.10264 16.7595 8.20139 16.7405 8.29355 16.7027C8.3857 16.665 8.46941 16.6092 8.5398 16.5388C8.61018 16.4683 8.66583 16.3846 8.7035 16.2924C8.74117 16.2002 8.7601 16.1014 8.75919 16.0018C8.75827 15.9023 8.73754 15.8039 8.69819 15.7124C8.65884 15.6209 8.60167 15.5382 8.53 15.469L5.811 12.75L14 12.75C14.1989 12.75 14.3897 12.671 14.5303 12.5303C14.671 12.3897 14.75 12.1989 14.75 12C14.75 11.8011 14.671 11.6103 14.5303 11.4697C14.3897 11.329 14.1989 11.25 14 11.25L5.811 11.25L8.53 8.53C8.66669 8.38861 8.74237 8.1992 8.74076 8.00255C8.73914 7.8059 8.66036 7.61775 8.52136 7.47863C8.38237 7.33951 8.1943 7.26054 7.99765 7.25874C7.80101 7.25694 7.61152 7.33244 7.47 7.469L3.47 11.469C3.40031 11.5386 3.34502 11.6213 3.3073 11.7124C3.26958 11.8034 3.25016 11.901 3.25016 11.9995C3.25016 12.098 3.26958 12.1956 3.3073 12.2866C3.34502 12.3776 3.40031 12.4603 3.47 12.53Z" fill="#FF5E5E"/>
</svg>
