<svg width="16" height="16" viewBox="0 0 16 16" fill="none" xmlns="http://www.w3.org/2000/svg">
<g clip-path="url(#clip0_2_1870)">
<path d="M7.45469 0.0171871C7.42031 0.0265627 7.27969 0.0546875 7.14219 0.0796871C5.51406 0.392188 4.16406 1.80156 3.89219 3.46719C3.83281 3.84219 3.83281 4.46094 3.89219 4.83281C4.17656 6.58594 5.56719 7.97031 7.34531 8.26406C7.69219 8.32344 8.31719 8.32344 8.67969 8.26406C10.3578 7.99219 11.7234 6.68281 12.0859 4.99844C12.1672 4.62344 12.1672 3.68594 12.0859 3.31094C11.7359 1.69531 10.4922 0.439063 8.87656 0.0765619C8.64844 0.0234375 7.60469 -0.0171881 7.45469 0.0171871Z" fill="#FF7901"/>
<path d="M4.56316 8.65276C3.54441 8.86839 2.68191 9.32776 1.96941 10.0309C1.49753 10.4965 0.994408 11.2215 0.856908 11.6309C0.791283 11.8309 0.822533 11.9215 1.11316 12.3496C2.20066 13.959 3.86003 15.1715 5.67253 15.684C6.96941 16.0465 8.36628 16.1028 9.64441 15.8434C10.9194 15.584 12.1788 14.9903 13.1757 14.1871C13.7975 13.6871 14.6007 12.7809 15.01 12.1215C15.2225 11.7746 15.2225 11.759 15.0194 11.359C14.3038 9.95276 12.8944 8.91214 11.335 8.63714C10.9413 8.56839 10.8069 8.59651 10.46 8.82464C9.68816 9.33089 8.90378 9.56839 8.00066 9.56839C7.07566 9.56839 6.33191 9.33714 5.47253 8.78089C5.23816 8.62776 5.19441 8.61214 5.01941 8.60589C4.91628 8.59964 4.71003 8.62151 4.56316 8.65276Z" fill="#FF7901"/>
</g>
<defs>
<clipPath id="clip0_2_1870">
<rect width="16" height="16" fill="white"/>
</clipPath>
</defs>
</svg>
