<svg width="16" height="16" viewBox="0 0 16 16" fill="none" xmlns="http://www.w3.org/2000/svg">
<path d="M15.3 6.13036C15.3 5.85421 15.0762 5.63036 14.8 5.63036H13.6437C13.3675 5.63036 13.1437 5.4065 13.1437 5.13036V3.6759C13.1437 3.5377 13.0865 3.40566 12.9856 3.31114L9.59804 0.135233C9.50537 0.048351 9.3831 0 9.25607 0H1.19922C0.923077 0 0.699219 0.223858 0.699219 0.5V15.5C0.699219 15.7761 0.923076 16 1.19922 16H12.6437C12.9198 16 13.1437 15.7761 13.1437 15.5V14.2516C13.1437 13.9754 13.3675 13.7516 13.6437 13.7516H14.8C15.0762 13.7516 15.3 13.5277 15.3 13.2516V6.13036ZM13.9667 11.9182C13.9667 12.1944 13.7428 12.4182 13.4667 12.4182H5.13335C4.85721 12.4182 4.63335 12.1944 4.63335 11.9182V7.46369C4.63335 7.18755 4.85721 6.96369 5.13335 6.96369H13.4667C13.7428 6.96369 13.9667 7.18755 13.9667 7.46369V11.9182Z" fill="#7D7D7E"/>
<path d="M7.59618 10.6809C7.59618 10.5502 7.49024 10.4443 7.35956 10.4443H6.68031C6.40417 10.4443 6.18031 10.2204 6.18031 9.94427V8.41047C6.18031 8.26144 6.0595 8.14062 5.91047 8.14062C5.76144 8.14062 5.64062 8.26144 5.64062 8.41047V10.4175C5.64062 10.6937 5.86448 10.9175 6.14062 10.9175H7.35956C7.49024 10.9175 7.59618 10.8116 7.59618 10.6809Z" fill="#7D7D7E"/>
<path d="M7.95159 10.4971C8.07021 10.6288 8.2123 10.7344 8.37795 10.8139C8.5435 10.8935 8.72799 10.9332 8.93133 10.9332C9.12688 10.9332 9.30808 10.8947 9.47497 10.8178C9.64181 10.7409 9.78519 10.6379 9.90519 10.5088C10.0251 10.3798 10.119 10.2311 10.1868 10.063C10.2546 9.89479 10.2885 9.71817 10.2885 9.53301C10.2885 9.35834 10.2559 9.18625 10.1907 9.01674C10.1255 8.84728 10.0343 8.69603 9.91697 8.56305C9.79959 8.43008 9.65817 8.32252 9.49261 8.24039C9.32697 8.15825 9.14381 8.11719 8.9431 8.11719C8.74755 8.11719 8.56626 8.15568 8.39946 8.23257C8.23257 8.30954 8.08853 8.41319 7.96728 8.5435C7.84599 8.67394 7.75084 8.82381 7.68177 8.99328C7.61261 9.16279 7.57812 9.34008 7.57812 9.52519C7.57812 9.70257 7.6107 9.87594 7.6759 10.0454C7.74101 10.2149 7.83292 10.3655 7.95159 10.4971ZM8.17848 9.18688C8.21368 9.07608 8.2651 8.97701 8.33297 8.88963C8.40075 8.8023 8.48555 8.7319 8.58724 8.67843C8.68893 8.62501 8.80493 8.59825 8.93533 8.59825C9.06044 8.59825 9.17319 8.62368 9.27359 8.67452C9.37395 8.72537 9.4587 8.79381 9.52786 8.87985C9.59693 8.9659 9.65039 9.06501 9.68817 9.1771C9.72595 9.28923 9.74488 9.40528 9.74488 9.52514C9.74488 9.63994 9.72724 9.75265 9.69204 9.86345C9.65684 9.9743 9.60466 10.074 9.53559 10.1627C9.46644 10.2513 9.38168 10.3224 9.28133 10.3758C9.18093 10.4293 9.06559 10.456 8.93524 10.456C8.80741 10.456 8.69337 10.4299 8.59301 10.3778C8.49257 10.3256 8.40786 10.2565 8.33879 10.1705C8.26964 10.0844 8.21688 9.98537 8.18039 9.87323C8.14386 9.76119 8.12564 9.6451 8.12564 9.52514C8.12564 9.41048 8.14328 9.29772 8.17848 9.18688Z" fill="#7D7D7E"/>
<path d="M10.9244 10.5225C11.043 10.6503 11.1825 10.7507 11.3428 10.8237C11.5032 10.8967 11.6746 10.9332 11.8572 10.9332C12.0798 10.9332 12.2817 10.8699 12.4627 10.7433C12.5296 10.6965 12.6316 10.7403 12.6316 10.822C12.6316 10.8726 12.6726 10.9136 12.7232 10.9136H12.8545C12.9776 10.9136 13.0774 10.8138 13.0774 10.6907V9.98608C13.0774 9.70993 12.8536 9.48608 12.5774 9.48608H12.2698C12.1607 9.48608 12.0723 9.57451 12.0723 9.68359C12.0723 9.79267 12.1607 9.8811 12.2698 9.8811H12.4888C12.5676 9.8811 12.6316 9.94503 12.6316 10.0239C12.6316 10.0579 12.6196 10.0911 12.5966 10.1162C12.3891 10.3428 12.1582 10.456 11.9041 10.456C11.7868 10.456 11.6779 10.4319 11.5775 10.3837C11.4771 10.3355 11.3904 10.2696 11.3174 10.1862C11.2444 10.1027 11.187 10.0043 11.1453 9.89088C11.1036 9.77745 11.0828 9.65563 11.0828 9.52519C11.0828 9.40003 11.1016 9.28141 11.1395 9.16928C11.1772 9.05723 11.2307 8.95808 11.2998 8.87203C11.3688 8.78599 11.4523 8.71821 11.5501 8.66865C11.6479 8.61914 11.7554 8.59434 11.8728 8.59434C12.0214 8.59434 12.1589 8.63088 12.2854 8.70385C12.3285 8.7288 12.3685 8.75754 12.4051 8.79007C12.5193 8.89141 12.6925 8.93819 12.8153 8.84755C12.9124 8.77589 12.9461 8.64215 12.8715 8.54731C12.7888 8.44226 12.686 8.35364 12.5631 8.28145C12.3767 8.17194 12.1531 8.11719 11.8924 8.11719C11.6994 8.11719 11.5208 8.15434 11.3565 8.22865C11.1923 8.30297 11.0495 8.40337 10.9282 8.52981C10.807 8.65634 10.7118 8.80359 10.6427 8.97177C10.5736 9.13994 10.5391 9.31923 10.5391 9.50954C10.5391 9.71034 10.5736 9.89741 10.6427 10.0708C10.7118 10.2442 10.8057 10.3948 10.9244 10.5225Z" fill="#7D7D7E"/>
</svg>
